<svg width="16" height="16" viewBox="0 0 16 16" fill="none" xmlns="http://www.w3.org/2000/svg">
<g clip-path="url(#clip0_21_1085)">
<path d="M14.3334 2.66668H12.5556V4.00001C12.5556 4.12841 12.5303 4.25556 12.4811 4.37419C12.432 4.49282 12.36 4.60061 12.2692 4.6914C12.1784 4.7822 12.0706 4.85422 11.952 4.90336C11.8333 4.9525 11.7062 4.97779 11.5778 4.97779C11.4494 4.97779 11.3222 4.9525 11.2036 4.90336C11.085 4.85422 10.9772 4.7822 10.8864 4.6914C10.7956 4.60061 10.7236 4.49282 10.6744 4.37419C10.6253 4.25556 10.6 4.12841 10.6 4.00001V2.66668H5.42224V4.00001C5.42224 4.25933 5.31923 4.50803 5.13586 4.6914C4.95249 4.87477 4.70379 4.97779 4.44446 4.97779C4.18514 4.97779 3.93644 4.87477 3.75307 4.6914C3.5697 4.50803 3.46669 4.25933 3.46669 4.00001V2.66668H1.68891C1.58314 2.66547 1.47821 2.68549 1.38031 2.72555C1.28241 2.76561 1.19354 2.82489 1.11896 2.89989C1.04437 2.97489 0.985584 3.06409 0.94607 3.1622C0.906556 3.26032 0.887119 3.36536 0.888908 3.47112V13.4178C0.887142 13.5217 0.905861 13.6249 0.943995 13.7216C0.982129 13.8182 1.03893 13.9064 1.11116 13.9811C1.18338 14.0558 1.26962 14.1156 1.36494 14.1569C1.46026 14.1983 1.56279 14.2205 1.66669 14.2222H14.3334C14.4372 14.2205 14.5398 14.1983 14.6351 14.1569C14.7304 14.1156 14.8167 14.0558 14.8889 13.9811C14.9611 13.9064 15.0179 13.8182 15.056 13.7216C15.0942 13.6249 15.1129 13.5217 15.1111 13.4178V3.47112C15.1129 3.36723 15.0942 3.264 15.056 3.16734C15.0179 3.07069 14.9611 2.98249 14.8889 2.90778C14.8167 2.83308 14.7304 2.77334 14.6351 2.73197C14.5398 2.6906 14.4372 2.66841 14.3334 2.66668V2.66668ZM4.44446 11.5556H3.55558V10.6667H4.44446V11.5556ZM4.44446 9.33334H3.55558V8.44445H4.44446V9.33334ZM4.44446 7.11112H3.55558V6.22223H4.44446V7.11112ZM7.11113 11.5556H6.22224V10.6667H7.11113V11.5556ZM7.11113 9.33334H6.22224V8.44445H7.11113V9.33334ZM7.11113 7.11112H6.22224V6.22223H7.11113V7.11112ZM9.7778 11.5556H8.88891V10.6667H9.7778V11.5556ZM9.7778 9.33334H8.88891V8.44445H9.7778V9.33334ZM9.7778 7.11112H8.88891V6.22223H9.7778V7.11112ZM12.4445 11.5556H11.5556V10.6667H12.4445V11.5556ZM12.4445 9.33334H11.5556V8.44445H12.4445V9.33334ZM12.4445 7.11112H11.5556V6.22223H12.4445V7.11112Z" fill="white"/>
<path d="M4.44444 4.44447C4.56232 4.44447 4.67536 4.39765 4.75871 4.3143C4.84206 4.23095 4.88889 4.1179 4.88889 4.00003V1.33336C4.88889 1.21549 4.84206 1.10244 4.75871 1.01909C4.67536 0.935741 4.56232 0.888916 4.44444 0.888916C4.32657 0.888916 4.21352 0.935741 4.13017 1.01909C4.04683 1.10244 4 1.21549 4 1.33336V4.00003C4 4.1179 4.04683 4.23095 4.13017 4.3143C4.21352 4.39765 4.32657 4.44447 4.44444 4.44447Z" fill="white"/>
<path d="M11.5555 4.44447C11.6734 4.44447 11.7864 4.39765 11.8698 4.3143C11.9531 4.23095 12 4.1179 12 4.00003V1.33336C12 1.21549 11.9531 1.10244 11.8698 1.01909C11.7864 0.935741 11.6734 0.888916 11.5555 0.888916C11.4377 0.888916 11.3246 0.935741 11.2413 1.01909C11.1579 1.10244 11.1111 1.21549 11.1111 1.33336V4.00003C11.1111 4.1179 11.1579 4.23095 11.2413 4.3143C11.3246 4.39765 11.4377 4.44447 11.5555 4.44447Z" fill="white"/>
</g>
<defs>
<clipPath id="clip0_21_1085">
<rect width="16" height="16" fill="white"/>
</clipPath>
</defs>
</svg>
