<svg width="24" height="24" viewBox="0 0 24 24" fill="none" xmlns="http://www.w3.org/2000/svg">
<path d="M23.6196 3.35143L21.969 4.61143C19.7186 1.80286 16.2185 0 12.2883 0C5.50178 0 0.0087899 5.35714 1.04871e-05 11.9857C-0.00876893 18.62 5.49592 24 12.2883 24C17.594 24 22.1154 20.7143 23.8361 16.1114C23.88 15.9914 23.8156 15.8571 23.6927 15.8171L22.0334 15.26C21.9756 15.2406 21.9122 15.2441 21.857 15.2698C21.8018 15.2954 21.759 15.3411 21.7378 15.3971C21.6852 15.54 21.6266 15.6829 21.5652 15.8229C21.0589 16.9943 20.3331 18.0457 19.4084 18.9486C18.4911 19.8458 17.405 20.5618 16.2097 21.0571C14.9718 21.5686 13.652 21.8286 12.2941 21.8286C10.9333 21.8286 9.61639 21.5686 8.3785 21.0571C7.18208 20.5639 6.09562 19.8477 5.17986 18.9486C4.26008 18.0531 3.52753 16.9915 3.02306 15.8229C2.49922 14.6114 2.23291 13.3257 2.23291 11.9971C2.23291 10.6686 2.49922 9.38286 3.02306 8.17143C3.52933 7 4.2551 5.94857 5.17986 5.04571C6.10463 4.14286 7.18157 3.43429 8.3785 2.93714C9.61639 2.42571 10.9362 2.16571 12.2941 2.16571C13.6549 2.16571 14.9718 2.42571 16.2097 2.93714C17.4061 3.43041 18.4926 4.14662 19.4084 5.04571C19.6981 5.32857 19.9703 5.62857 20.2219 5.94286L18.4602 7.28571C18.4253 7.31204 18.3988 7.34744 18.3836 7.38784C18.3685 7.42823 18.3653 7.47199 18.3744 7.51407C18.3836 7.55616 18.4048 7.59486 18.4355 7.62573C18.4662 7.6566 18.5052 7.67838 18.548 7.68857L23.6869 8.91714C23.8332 8.95143 23.9766 8.84286 23.9766 8.69714L24 3.52857C23.9971 3.34 23.7717 3.23429 23.6196 3.35143Z" fill="white"/>
</svg>
