<svg width="32" height="32" viewBox="0 0 32 32" fill="none" xmlns="http://www.w3.org/2000/svg">
<path d="M16.0061 11.6432C14.8771 11.6432 13.8198 12.0581 13.0193 12.8163C12.2226 13.5745 11.7808 14.5759 11.7808 15.6453C11.7808 16.7146 12.2226 17.716 13.0193 18.4742C13.8198 19.2289 14.8771 19.6473 16.0061 19.6473C17.1352 19.6473 18.1924 19.2289 18.993 18.4742C19.7897 17.716 20.2315 16.7146 20.2315 15.6453C20.2315 14.5759 19.7897 13.5745 18.993 12.8163C18.602 12.4431 18.1366 12.1472 17.6238 11.9458C17.1111 11.7445 16.5612 11.6416 16.0061 11.6432ZM31.5746 20.0658L29.1051 18.0665C29.2222 17.387 29.2826 16.6932 29.2826 16.0029C29.2826 15.3126 29.2222 14.6152 29.1051 13.9393L31.5746 11.94C31.7612 11.7888 31.8947 11.5873 31.9574 11.3624C32.0201 11.1376 32.0091 10.8999 31.9258 10.6811L31.8918 10.5881C31.2122 8.78806 30.1938 7.11951 28.8861 5.66333L28.8181 5.58823C28.6593 5.41138 28.4477 5.28425 28.2111 5.2236C27.9745 5.16295 27.724 5.17162 27.4927 5.24846L24.4266 6.28206C23.2938 5.40225 22.0326 4.70842 20.6657 4.22559L20.0729 1.18918C20.0282 0.960432 19.911 0.749994 19.737 0.585817C19.563 0.421641 19.3404 0.311498 19.0987 0.270023L18.9967 0.252141C17.0332 -0.084047 14.964 -0.084047 13.0004 0.252141L12.8985 0.270023C12.6568 0.311498 12.4342 0.421641 12.2602 0.585817C12.0862 0.749994 11.969 0.960432 11.9243 1.18918L11.3277 4.2399C9.97371 4.72657 8.71239 5.41873 7.59321 6.28922L4.50444 5.24846C4.27321 5.17101 4.02258 5.16202 3.78584 5.22271C3.5491 5.2834 3.33747 5.41089 3.17906 5.58823L3.11109 5.66333C1.8057 7.12107 0.787608 8.78919 0.105392 10.5881L0.0714083 10.6811C-0.0985118 11.1282 0.0412004 11.6289 0.422577 11.94L2.92229 13.9607C2.80523 14.6331 2.74859 15.3198 2.74859 15.9993C2.74859 16.686 2.80523 17.3727 2.92229 18.0379L0.430129 20.0586C0.243578 20.2099 0.110061 20.4113 0.0473324 20.6362C-0.0153964 20.8611 -0.00436491 21.0987 0.0789602 21.3175L0.112944 21.4105C0.796401 23.2095 1.80459 24.8725 3.11864 26.3353L3.18661 26.4104C3.34541 26.5873 3.55705 26.7144 3.79365 26.775C4.03025 26.8357 4.2807 26.827 4.51199 26.7502L7.60076 25.7094C8.72601 26.5857 9.97964 27.2795 11.3352 27.7587L11.9318 30.8095C11.9766 31.0382 12.0937 31.2487 12.2677 31.4128C12.4417 31.577 12.6644 31.6871 12.906 31.7286L13.008 31.7465C14.9908 32.0845 17.0215 32.0845 19.0043 31.7465L19.1062 31.7286C19.3479 31.6871 19.5705 31.577 19.7446 31.4128C19.9186 31.2487 20.0357 31.0382 20.0805 30.8095L20.6733 27.7731C22.0402 27.2866 23.3014 26.5964 24.4342 25.7166L27.5003 26.7502C27.7315 26.8276 27.9821 26.8366 28.2189 26.7759C28.4556 26.7152 28.6673 26.5878 28.8257 26.4104L28.8936 26.3353C30.2077 24.8654 31.2159 23.2095 31.8993 21.4105L31.9333 21.3175C32.0957 20.874 31.956 20.3769 31.5746 20.0658ZM16.0061 21.9327C12.3396 21.9327 9.36793 19.118 9.36793 15.6453C9.36793 12.1725 12.3396 9.35783 16.0061 9.35783C19.6726 9.35783 22.6444 12.1725 22.6444 15.6453C22.6444 19.118 19.6726 21.9327 16.0061 21.9327Z" fill="white"/>
</svg>
